<?xml version="1.0" encoding="UTF-8" standalone="no"?>
<svg width="18px" height="18px" viewBox="0 0 18 18" version="1.1" xmlns="http://www.w3.org/2000/svg" xmlns:xlink="http://www.w3.org/1999/xlink">
    <!-- Generator: Sketch 39.1 (31720) - http://www.bohemiancoding.com/sketch -->
    <title>Imported Layers Copy</title>
    <desc>Created with Sketch.</desc>
    <defs></defs>
    <g id="Доп-фильтры" stroke="none" stroke-width="1" fill="none" fill-rule="evenodd">
        <g id="Районы" transform="translate(-756.000000, -168.000000)" fill="#D5D5D5">
            <g id="Rectangle-412-+-Введите-свой-город-+-Find" transform="translate(744.000000, 157.000000)">
                <g id="Find" transform="translate(8.000000, 8.500000)">
                    <path d="M16.5,14 L15.71,14 L15.43,13.73 C16.41,12.59 17,11.11 17,9.5 C17,5.91 14.09,3 10.5,3 C6.91,3 4,5.91 4,9.5 C4,13.09 6.91,16 10.5,16 C12.11,16 13.59,15.41 14.73,14.43 L15,14.71 L15,15.5 L20,20.49 L21.49,19 L16.5,14 L16.5,14 Z M10.5,14 C8.01,14 6,11.99 6,9.5 C6,7.01 8.01,5 10.5,5 C12.99,5 15,7.01 15,9.5 C15,11.99 12.99,14 10.5,14 L10.5,14 Z" id="Imported-Layers-Copy"></path>
                </g>
            </g>
        </g>
    </g>
</svg>